<svg xmlns="http://www.w3.org/2000/svg" version="1.1" xmlns:xlink="http://www.w3.org/1999/xlink" xmlns:svgjs="http://svgjs.dev/svgjs" width="2000" height="2000" viewBox="0 0 2000 2000"><rect width="2000" height="2000" fill="#0f172a"></rect><g transform="matrix(0.75,0,0,0.75,249.090909090909,282.7536437246963)"><svg viewBox="0 0 396 247" data-background-color="#0f172a" preserveAspectRatio="xMidYMid meet" height="1500" width="2000" xmlns="http://www.w3.org/2000/svg" xmlns:xlink="http://www.w3.org/1999/xlink"><g id="tight-bounds" transform="matrix(1,0,0,1,0.2400000000000091,-0.09999999999999432)"><svg viewBox="0 0 395.52 247.2" height="300" width="395.52"><g><svg></svg></g><g><svg viewBox="0 0 395.52 247.2" height="300" width="395.52"><g transform="matrix(1,0,0,1,125.92259954785229,47.215199999999996)"><svg viewBox="0 0 143.6748009042954 152.7696" height="152.7696" width="143.6748009042954"><g><svg viewBox="0 0 143.6748009042954 152.7696" height="152.7696" width="143.6748009042954"><g><svg viewBox="0 0 143.6748009042954 152.7696" height="152.7696" width="143.6748009042954"><g><svg viewBox="0 0 143.6748009042954 152.7696" height="152.7696" width="143.6748009042954"><g id="textblocktransform"><svg viewBox="0 0 143.6748009042954 152.7696" height="152.7696" width="143.6748009042954" id="textblock"><g><svg viewBox="0 0 143.6748009042954 152.7696" height="152.7696" width="143.6748009042954"><g transform="matrix(1,0,0,1,0,0)"><svg width="143.6748009042954" viewBox="2.369999885559082 -32.400001525878906 30.470001220703125 32.400001525878906" height="152.7696" data-palette-color="#5eead4"><path d="M13.16-32.4L13.16 0 8.86 0 2.37-6.47 2.37-25.93 8.86-32.4 13.16-32.4ZM22.05-25.93L14.87-25.93 14.87-32.4 26.37-32.4 32.84-25.93 32.84-19.41 22.05-19.41 22.05-25.93ZM26.37 0L14.87 0 14.87-6.47 22.05-6.47 22.05-11.21 32.84-11.21 32.84-6.47 26.37 0Z" opacity="1" transform="matrix(1,0,0,1,0,0)" fill="#5eead4" class="wordmark-text-0" data-fill-palette-color="primary" id="text-0"></path></svg></g></svg></g></svg></g></svg></g></svg></g></svg></g></svg></g><path d="M87.296 41.215L87.296 0 334.496 0 334.496 247.2 87.296 247.2 87.296 205.985 101.073 205.985 101.073 233.423 320.719 233.423 320.719 13.777 101.073 13.777 101.073 41.215Z" fill="#5eead4" stroke="transparent" data-fill-palette-color="primary"></path></svg></g><defs></defs></svg><rect width="395.52" height="247.2" fill="none" stroke="none" visibility="hidden"></rect></g></svg></g></svg>